<svg xmlns="http://www.w3.org/2000/svg" xmlns:xlink="http://www.w3.org/1999/xlink" width="871" height="722.964" viewBox="0 0 871 722.964"><defs><filter id="a" x="118.64" y="47.146" width="681.367" height="669.334" filterUnits="userSpaceOnUse"><feOffset input="SourceAlpha"/><feGaussianBlur stdDeviation="16" result="b"/><feFlood flood-color="#08c1c2"/><feComposite operator="in" in2="b"/><feComposite in="SourceGraphic"/></filter><filter id="c" x="90.441" y="17.949" width="683.706" height="696.059" filterUnits="userSpaceOnUse"><feOffset input="SourceAlpha"/><feGaussianBlur stdDeviation="16" result="d"/><feFlood flood-color="#08c1c2"/><feComposite operator="in" in2="d"/><feComposite in="SourceGraphic"/></filter><filter id="e" x="68.511" y="33.675" width="727.464" height="689.289" filterUnits="userSpaceOnUse"><feOffset input="SourceAlpha"/><feGaussianBlur stdDeviation="16" result="f"/><feFlood flood-color="#08c1c2"/><feComposite operator="in" in2="f"/><feComposite in="SourceGraphic"/></filter><filter id="g" x="2.7" y="18.296" width="704.599" height="687.359" filterUnits="userSpaceOnUse"><feOffset input="SourceAlpha"/><feGaussianBlur stdDeviation="16" result="h"/><feFlood flood-color="#df0edb"/><feComposite operator="in" in2="h"/><feComposite in="SourceGraphic"/></filter><filter id="i" x="119.305" y="77.258" width="637.396" height="615.706" filterUnits="userSpaceOnUse"><feOffset input="SourceAlpha"/><feGaussianBlur stdDeviation="16" result="j"/><feFlood flood-color="#df0edb"/><feComposite operator="in" in2="j"/><feComposite in="SourceGraphic"/></filter></defs><g transform="translate(-919.317 -507.996)"><g transform="translate(970.017 573.945)"><g transform="matrix(1, 0, 0, 1, -50.7, -65.95)" filter="url(#a)"><g transform="translate(705.98 668.48) rotate(-175)" fill="none" opacity="0.6"><path d="M269.087,0,541.4,528.158H0Z" stroke="none"/><path d="M 269.1721801757813 35.07904052734375 L 26.10858154296875 512.1576538085938 L 515.1449584960938 512.1576538085938 L 269.1721801757813 35.07904052734375 M 269.0874938964844 0 L 541.3956298828125 528.1576538085938 L 0 528.1576538085938 L 269.0874938964844 0 Z" stroke="none" fill="#fff"/></g></g><g transform="matrix(1, 0, 0, 1, -50.7, -65.95)" filter="url(#c)"><g transform="translate(677.78 666.01) rotate(-175)" fill="none" opacity="0.06"><path d="M240.726,0,541.4,554.985H0Z" stroke="none"/><path d="M 242.3206176757813 36.53204345703125 L 24.38037109375 538.98486328125 L 514.5302734375 538.98486328125 L 242.3206176757813 36.53204345703125 M 240.7261352539063 0 L 541.3956298828125 554.98486328125 L 0 554.98486328125 L 240.7261352539063 0 Z" stroke="none" fill="#fff"/></g></g><g transform="matrix(1, 0, 0, 1, -50.7, -65.95)" filter="url(#e)"><g transform="translate(747.98 605.32) rotate(173)" fill="none" opacity="0.3"><path d="M311.624,0l259.8,527.583H0Z" stroke="none"/><path d="M 310.3469848632813 33.62319946289063 L 28.033203125 511.5825500488281 L 545.7129516601563 511.5825500488281 L 310.3469848632813 33.62319946289063 M 311.6244201660156 0 L 571.4267578125 527.5825805664063 L -6.103515625e-05 527.5825805664063 L 311.6244201660156 0 Z" stroke="none" fill="#fff"/></g></g><g transform="matrix(1, 0, 0, 1, -50.7, -65.95)" filter="url(#g)"><g transform="matrix(-1, -0.07, 0.07, -1, 620.73, 657.65)" fill="none" opacity="0.08"><path d="M183.269,0,571.427,552.845H0Z" stroke="none"/><path d="M 188.4494934082031 35.22222900390625 L 22.1602783203125 536.8449096679688 L 540.6431884765625 536.8449096679688 L 188.4494934082031 35.22222900390625 M 183.2695007324219 0 L 571.4267578125 552.8449096679688 L -6.103515625e-05 552.8449096679688 L 183.2695007324219 0 Z" stroke="none" fill="#fff"/></g></g><g transform="matrix(1, 0, 0, 1, -50.7, -65.95)" filter="url(#i)"><g transform="translate(708.7 644.96) rotate(180)" fill="none"><path d="M270.7,0,541.4,519.706H0Z" stroke="none"/><path d="M 270.6975708007813 34.63516235351563 L 26.3741455078125 503.7064819335938 L 515.0214233398438 503.7064819335938 L 270.6975708007813 34.63516235351563 M 270.6975708007813 0 L 541.3956298828125 519.7064819335938 L 0 519.7064819335938 L 270.6975708007813 0 Z" stroke="none" fill="#fff"/></g></g></g><g transform="translate(919.317 507.996)" fill="none" stroke="rgba(255,255,255,0.01)" stroke-width="1"><rect width="871" height="716" stroke="none"/><rect x="0.5" y="0.5" width="870" height="715" fill="none"/></g></g></svg>